<svg width="185" height="136" viewBox="0 0 185 136" fill="none" xmlns="http://www.w3.org/2000/svg">
<path d="M44.6479 23.62C44.5679 22.74 45.1879 22.04 46.5079 21.52C47.8279 20.96 48.9679 21.06 49.9279 21.82C50.2079 22.06 50.4879 22.52 50.7679 23.2C52.2479 22.6 54.5279 22.1 57.6079 21.7C60.6879 21.3 63.3279 21.24 65.5279 21.52C67.1679 21.72 68.3279 22.28 69.0079 23.2C69.7279 24.08 70.0679 25.44 70.0279 27.28C69.9079 30.48 69.5279 32.78 68.8879 34.18C68.0079 36.14 66.5479 37.48 64.5079 38.2C63.6279 38.52 62.3479 38.8 60.6679 39.04C60.7479 40.56 60.7279 42.1 60.6079 43.66C65.4879 43.62 70.5079 42.94 75.6679 41.62C76.4279 41.46 77.0479 41.84 77.5279 42.76C78.0479 43.68 78.2079 44.8 78.0079 46.12C77.8479 47.4 77.2479 48.38 76.2079 49.06C74.2079 50.42 70.4679 51.34 64.9879 51.82C59.6679 52.34 56.9479 52.6 56.8279 52.6C49.2679 52.92 43.8079 52.8 40.4479 52.24C39.1279 52.04 38.1479 51.28 37.5079 49.96C36.8679 48.6 36.9279 47.26 37.6879 45.94C38.7279 44.22 40.0479 43.48 41.6479 43.72C44.3679 44 46.2479 44.14 47.2879 44.14C48.3279 44.14 49.6479 44.06 51.2479 43.9C52.8879 43.7 54.1079 43.6 54.9079 43.6C54.8679 43.28 54.8079 42.82 54.7279 42.22C54.6879 41.62 54.6679 41.18 54.6679 40.9C54.5479 40.26 54.4679 39.78 54.4279 39.46C53.7479 39.46 52.8079 39.38 51.6079 39.22C49.9279 38.98 48.7079 38.4 47.9479 37.48C47.1879 36.52 46.6279 35.24 46.2679 33.64C45.5079 30.16 44.9679 26.82 44.6479 23.62ZM63.7879 65.98C63.7879 65.22 63.5879 64.7 63.1879 64.42C62.7879 64.18 62.1879 64.04 61.3879 64C60.1879 63.96 58.0079 64.12 54.8479 64.48C51.6879 64.88 49.6079 65.08 48.6079 65.08C47.8079 65.08 47.1679 64.58 46.6879 63.58C46.2479 62.58 46.0679 61.5 46.1479 60.34C46.2279 59.18 46.5279 58.38 47.0479 57.94C48.3679 56.78 53.1279 55.98 61.3279 55.54C64.0879 55.42 66.0679 55.68 67.2679 56.32C68.5079 56.96 69.2679 58.54 69.5479 61.06C69.7479 62.78 69.6879 64.68 69.3679 66.76C69.0879 68.88 68.7479 70.28 68.3479 70.96C67.9079 71.76 67.2879 72.28 66.4879 72.52C65.6879 72.76 64.9879 72.7 64.3879 72.34C63.7879 71.98 63.4879 71.44 63.4879 70.72C63.4879 70.16 63.5279 69.4 63.6079 68.44C63.7279 67.48 63.7879 66.66 63.7879 65.98ZM57.9679 34.42C59.6479 33.94 60.5679 32.56 60.7279 30.28C60.8079 29.16 60.6679 28.46 60.3079 28.18C59.9479 27.86 59.3479 27.76 58.5079 27.88C56.4679 28.08 54.3879 28.5 52.2679 29.14C52.5079 31.34 52.6879 32.64 52.8079 33.04C53.0879 34.12 53.7079 34.72 54.6679 34.84C55.3479 34.92 56.4479 34.78 57.9679 34.42ZM87.1527 44.32C88.5127 43.52 89.8727 43.2933 91.2327 43.64C92.8327 44.04 94.2594 44.7467 95.5127 45.76C96.6594 46.6933 97.3794 47.8933 97.6727 49.36C97.9661 50.8267 97.7527 52.2 97.0327 53.48C95.8327 55.5333 93.4061 56.76 89.7527 57.16C88.4994 57.2933 87.2594 57.0667 86.0327 56.48C84.8061 55.8667 83.8994 54.9467 83.3127 53.72C82.2461 51.5067 82.6594 49.1733 84.5527 46.72C85.3527 45.6533 86.2194 44.8533 87.1527 44.32ZM90.7127 47.76C90.5261 47.44 90.2461 47.16 89.8727 46.92C89.5261 46.68 89.1794 46.5867 88.8327 46.64C88.4327 46.6933 88.0061 47.04 87.5527 47.68C87.0994 48.2933 86.8061 48.9067 86.6727 49.52C86.4861 50.32 86.5927 50.9733 86.9927 51.48C87.4194 51.9867 87.9927 52.1867 88.7127 52.08C89.8594 51.8933 90.6061 51.36 90.9527 50.48C91.3261 49.6 91.2461 48.6933 90.7127 47.76ZM103.073 40.64C103.073 40.4 103.099 40.16 103.153 39.92C103.233 39.6533 103.393 39.36 103.633 39.04C103.873 38.72 104.219 38.52 104.673 38.44C105.126 38.36 105.726 38.3733 106.473 38.48C107.806 38.7733 108.753 39.92 109.313 41.92C109.526 42.6667 109.753 44.0533 109.993 46.08C110.233 48.08 110.379 49.6533 110.433 50.8C110.539 53.8667 110.553 55.8933 110.473 56.88C110.446 57.0933 110.406 57.8133 110.353 59.04C110.326 60.2667 110.233 61.1733 110.073 61.76C109.913 62.3733 109.339 62.84 108.353 63.16C107.366 63.4533 106.353 63.48 105.313 63.24C104.273 63 103.606 62.5067 103.313 61.76C102.993 60.96 102.833 60.1467 102.833 59.32C102.833 58.4933 102.859 58 102.913 57.84C102.913 57.44 102.993 56.4667 103.153 54.92C103.313 53.3467 103.379 52.3067 103.353 51.8C103.326 50.68 103.299 49.32 103.273 47.72C103.246 46.0933 103.219 44.72 103.193 43.6C103.166 42.4533 103.126 41.4667 103.073 40.64ZM33.6155 88.96C33.6155 88.6 33.6555 88.24 33.7355 87.88C33.8155 87.52 33.9755 87.14 34.2155 86.74C34.4555 86.34 34.8555 86.04 35.4155 85.84C36.0155 85.64 36.7155 85.6 37.5155 85.72C39.4355 86 40.8555 87.72 41.7755 90.88C42.0955 92 42.4355 94.08 42.7955 97.12C43.1555 100.12 43.3755 102.48 43.4555 104.2C43.6155 108.8 43.6355 111.84 43.5156 113.32C43.4755 113.64 43.4155 114.72 43.3355 116.56C43.2955 118.4 43.1555 119.76 42.9155 120.64C42.6755 121.56 41.9155 122.26 40.6355 122.74C39.3555 123.18 38.0355 123.22 36.6755 122.86C35.3155 122.5 34.4155 121.76 33.9755 120.64C33.4955 119.44 33.2555 118.22 33.2555 116.98C33.2555 115.74 33.2955 115 33.3755 114.76C33.3755 114.16 33.4955 112.7 33.7355 110.38C33.9755 108.02 34.0755 106.46 34.0355 105.7V105.58C31.8355 106.02 30.1755 106.24 29.0555 106.24C28.2155 106.28 27.5155 106.02 26.9555 105.46C26.4355 104.9 26.1355 104.28 26.0555 103.6C25.9755 102.92 26.0955 102.28 26.4155 101.68C26.7755 101.04 27.3155 100.7 28.0355 100.66C29.8755 100.58 31.8155 100.32 33.8555 99.88C33.7755 93.8 33.6955 90.16 33.6155 88.96ZM14.7155 100.9C14.7555 99.74 14.5755 98.94 14.1755 98.5C13.8155 98.02 13.0955 97.82 12.0155 97.9C11.1755 97.94 8.89555 98.34 5.17555 99.1C4.21555 99.3 3.41555 99.08 2.77555 98.44C2.13555 97.8 1.83555 97.04 1.87555 96.16C1.95555 95.28 2.41555 94.64 3.25555 94.24C4.57555 93.6 6.61555 93.06 9.37555 92.62C12.1755 92.18 14.5355 91.92 16.4555 91.84C19.6155 91.72 21.8155 92.4 23.0555 93.88C24.2955 95.32 24.8555 97.7 24.7355 101.02C24.5355 105.5 23.5555 110.34 21.7955 115.54C21.3155 116.94 20.2555 117.86 18.6155 118.3C17.0155 118.74 15.5755 118.56 14.2955 117.76C13.0155 116.96 12.5355 115.74 12.8555 114.1C13.9755 108.82 14.5955 104.42 14.7155 100.9ZM55.0182 112.48C53.6982 112.24 52.7182 111.56 52.0782 110.44C51.4782 109.32 51.5382 108.1 52.2582 106.78C53.2982 105.06 54.6182 104.32 56.2182 104.56C58.4982 105 61.2782 105.08 64.5582 104.8C67.8782 104.52 69.9382 104.4 70.7382 104.44C77.4582 104.68 83.9582 104.02 90.2382 102.46C90.9982 102.3 91.6182 102.64 92.0982 103.48C92.6182 104.28 92.7782 105.28 92.5782 106.48C92.4182 107.68 91.8182 108.62 90.7782 109.3C88.7782 110.66 85.0382 111.58 79.5582 112.06C79.2382 112.1 78.5982 112.18 77.6382 112.3C76.6782 112.42 75.9582 112.5 75.4782 112.54C75.4782 113.98 75.3982 115.24 75.2382 116.32C75.3182 116.32 75.4382 116.32 75.5982 116.32C75.7582 116.28 75.8582 116.26 75.8982 116.26C78.6582 116.14 80.6382 116.4 81.8382 117.04C83.0782 117.68 83.8382 119.26 84.1182 121.78C84.3182 123.46 84.2582 125.22 83.9382 127.06C83.6582 128.94 83.3182 130.24 82.9182 130.96C82.4782 131.76 81.8582 132.28 81.0582 132.52C80.2582 132.76 79.5582 132.7 78.9582 132.34C78.3582 131.98 78.0582 131.44 78.0582 130.72C78.0982 130 78.1582 129.2 78.2382 128.32C78.3182 127.44 78.3582 126.9 78.3582 126.7C78.3582 125.94 78.1582 125.42 77.7582 125.14C77.3582 124.9 76.7582 124.76 75.9582 124.72C74.7582 124.68 72.5782 124.84 69.4182 125.2C66.2582 125.6 64.1782 125.8 63.1782 125.8C62.3782 125.8 61.7382 125.3 61.2582 124.3C60.8182 123.3 60.6382 122.22 60.7182 121.06C60.7982 119.9 61.0982 119.1 61.6182 118.66C62.5782 117.82 65.2382 117.16 69.5982 116.68C69.5982 115.44 69.4782 114.2 69.2382 112.96C62.7982 113.2 58.0582 113.04 55.0182 112.48ZM67.0182 88C71.3382 87.28 73.7382 86.88 74.2182 86.8C74.6982 86.72 75.0182 86.42 75.1782 85.9C75.4182 85.1 75.4582 83.72 75.2982 81.76C75.1782 80.16 75.4982 79.1 76.2582 78.58C77.0582 78.02 78.2182 77.74 79.7382 77.74C80.4582 77.74 81.1782 78.08 81.8982 78.76C82.6182 79.4 83.0982 80.2 83.3382 81.16C83.5782 82.08 83.7782 83.52 83.9382 85.48C84.0982 87.44 84.1382 88.98 84.0582 90.1C83.8182 94.18 83.2182 97 82.2582 98.56C81.4582 99.76 79.9182 100.66 77.6382 101.26C76.3182 101.58 74.3182 101.8 71.6382 101.92C68.9582 102 66.8782 101.92 65.3982 101.68C64.4782 101.52 63.6182 101.16 62.8182 100.6C62.0182 100.04 61.4782 99.4 61.1982 98.68C60.7182 97.4 60.3382 95.66 60.0582 93.46C59.7782 91.26 59.6382 89.7 59.6382 88.78C59.6382 86.26 59.7582 84.6 59.9982 83.8C60.2382 82.96 60.8382 82.48 61.7982 82.36C62.8782 82.2 63.7982 82.4 64.5582 82.96C65.3182 83.52 65.7582 84.24 65.8782 85.12C66.0782 86.36 66.2182 87.16 66.2982 87.52C66.3382 87.92 66.5782 88.08 67.0182 88ZM67.9782 97.48C69.5782 97.72 71.3382 97.54 73.2582 96.94C73.7382 96.78 74.0582 96.48 74.2182 96.04C74.2982 95.84 74.3382 94.92 74.3382 93.28C74.3382 92.84 74.0182 92.62 73.3782 92.62C70.9382 92.62 68.9182 92.84 67.3182 93.28C66.9182 93.4 66.7182 93.66 66.7182 94.06C66.7182 95.18 66.8782 96.16 67.1982 97C67.2782 97.24 67.5382 97.4 67.9782 97.48ZM132.503 84.76C132.343 83.92 132.483 83.12 132.923 82.36C133.403 81.6 134.383 81.32 135.863 81.52C136.663 81.64 137.483 82.32 138.323 83.56C139.203 84.76 139.823 85.8 140.183 86.68C141.223 89.04 142.003 91.92 142.523 95.32C143.083 98.68 143.403 101.54 143.483 103.9C143.803 111.34 143.623 118.14 142.943 124.3C142.823 125.3 142.123 126.08 140.843 126.64C139.563 127.2 138.203 127.3 136.763 126.94C135.323 126.62 134.363 125.86 133.883 124.66C133.403 123.46 133.363 121.26 133.763 118.06C133.923 116.18 134.083 113.16 134.243 109C132.283 109.84 130.623 110.4 129.263 110.68C129.343 112.6 129.283 114.64 129.083 116.8C129.003 118 128.463 119.02 127.463 119.86C126.463 120.66 125.483 120.96 124.523 120.76C123.603 120.56 123.143 119.82 123.143 118.54C123.143 118.26 123.203 116.42 123.323 113.02C123.483 109.62 123.543 107.16 123.503 105.64C123.383 101.68 123.003 98.12 122.363 94.96C122.123 93.68 122.303 92.68 122.903 91.96C123.543 91.24 124.383 91.18 125.423 91.78C126.983 92.74 128.023 94.38 128.543 96.7C128.783 97.74 128.903 99.48 128.903 101.92C130.823 101.72 132.543 101.42 134.063 101.02C133.743 93.66 133.223 88.24 132.503 84.76ZM117.983 93.1C118.503 92.98 118.943 93.32 119.303 94.12C119.663 94.88 119.863 95.78 119.903 96.82C119.983 97.82 119.843 98.84 119.483 99.88C119.163 100.88 118.643 101.56 117.923 101.92C115.883 102.96 113.003 103.56 109.283 103.72C107.763 103.76 105.903 103.98 103.703 104.38C101.543 104.74 100.143 104.88 99.503 104.8C98.783 104.68 98.223 103.92 97.823 102.52C97.423 101.08 97.423 99.6 97.823 98.08C98.263 96.56 99.103 95.66 100.343 95.38C100.863 95.26 102.863 95.1 106.343 94.9C106.423 91.22 106.223 88.36 105.743 86.32C105.503 85.16 105.663 84.38 106.223 83.98C106.783 83.58 107.643 83.42 108.803 83.5C109.923 83.54 110.743 84.28 111.263 85.72C111.823 87.12 111.963 88.7 111.683 90.46C111.523 91.38 111.383 92.54 111.263 93.94C111.903 93.82 112.983 93.7 114.503 93.58C116.023 93.42 117.183 93.26 117.983 93.1ZM103.463 109.9C104.343 108.7 105.663 107.78 107.423 107.14C109.183 106.46 110.863 106.34 112.463 106.78C114.063 107.22 115.283 108.3 116.123 110.02C116.963 111.74 117.343 113.44 117.263 115.12C117.183 117.52 116.243 119.48 114.443 121C112.683 122.52 110.503 123.28 107.903 123.28C105.983 123.28 104.363 122.78 103.043 121.78C101.763 120.78 101.123 119.36 101.123 117.52C101.123 114.6 101.903 112.06 103.463 109.9ZM110.123 112.66C109.923 111.82 109.583 111.28 109.103 111.04C108.623 110.8 108.123 110.84 107.603 111.16C107.123 111.48 106.703 111.96 106.343 112.6C106.143 112.92 105.943 113.38 105.743 113.98C105.583 114.54 105.543 115.12 105.623 115.72C105.703 116.32 106.003 116.7 106.523 116.86C106.963 116.98 107.503 116.86 108.143 116.5C108.783 116.1 109.303 115.54 109.703 114.82C110.143 114.02 110.283 113.3 110.123 112.66Z" fill="#FFFAF0"/>
<path d="M134.021 36.3077C130.437 52.4742 141.299 54.5907 138.824 54.74C126.597 55.4764 127.138 39.0213 126.052 38.7806C122.146 37.9147 117.113 36.07 117.854 32.724C118.597 29.3747 123.687 25.5348 129.75 26.8788C133.658 27.7451 134.763 32.9584 134.021 36.3077ZM173.815 60.1493C173.413 61.9628 168.306 57.6512 165.601 58.3287C161.952 59.2431 162.643 56.1287 163.045 54.3153C163.447 52.5018 165.615 53.1617 168.336 53.765C171.058 54.3684 174.217 58.3343 173.815 60.1493Z" fill="#77B255"/>
<path d="M140.496 60.5272C139.491 65.0625 137.355 64.7544 134.763 64.1799C132.171 63.6053 130.104 62.9799 131.109 58.4463C131.287 57.643 131.623 56.787 132.071 55.9247C134.148 51.9216 138.618 47.8011 140.75 48.2738C143.342 48.8483 141.502 55.992 140.496 60.5272ZM154.575 63.6481C153.57 68.1834 155.634 68.8064 158.226 69.381C160.82 69.9559 162.956 70.2623 163.961 65.7287C164.141 64.8434 164.206 63.9386 164.155 63.0367C163.963 58.5307 161.654 52.9076 159.522 52.4349C156.93 51.8604 155.581 59.1129 154.575 63.6481Z" fill="#77B255"/>
<path d="M167.841 56.0023C166.384 62.5727 157.926 60.6978 147.494 58.3853C137.062 56.0728 128.604 54.1979 130.061 47.6275C132.474 36.7419 142.888 29.7911 153.32 32.1036C163.752 34.4161 170.254 45.1167 167.841 56.0023Z" fill="#3E721D"/>
<path d="M126.403 33.0301C127.31 33.2312 128.209 32.6588 128.41 31.7516C128.611 30.8445 128.039 29.946 127.131 29.7449C126.224 29.5438 125.326 30.1162 125.125 31.0234C124.924 31.9306 125.496 32.829 126.403 33.0301Z" fill="#292F33"/>
<path d="M154.845 49.8471C153.537 55.7457 151.095 55.7369 148.222 55.1001C145.349 54.4632 143.133 53.4377 144.44 47.5407C145.747 41.6438 149.717 34.7516 152.592 35.3888C155.466 36.026 156.152 43.9501 154.845 49.8471ZM165.648 50.3462C165.811 56.3829 162.903 56.6312 160.03 55.9943C157.158 55.3575 155.619 56.2054 156.926 50.3084C158.233 44.4115 157.459 39.2251 160.332 39.862C163.204 40.4985 165.462 43.4117 165.648 50.3462ZM142.361 47.0798C141.053 52.9784 140.015 51.5575 137.142 50.9206C134.269 50.2838 131.74 48.8303 134.438 43.4279C137.537 37.2216 141.745 35.7416 144.617 36.3784C147.492 37.0156 143.668 41.1828 142.361 47.0798Z" fill="#5C913B"/>
</svg>
